<?xml version="1.0" encoding="UTF-8" standalone="no"?>
<!-- Generator: Adobe Illustrator 18.0.0, SVG Export Plug-In . SVG Version: 6.00 Build 0)  -->

<svg
   version="1.1"
   id="Capa_1"
   x="0px"
   y="0px"
   viewBox="0 0 297 297"
   style="enable-background:new 0 0 297 297;"
   xml:space="preserve"
   sodipodi:docname="blubb.today.svg"
   inkscape:version="1.2 (dc2aedaf03, 2022-05-15)"
   xmlns:inkscape="http://www.inkscape.org/namespaces/inkscape"
   xmlns:sodipodi="http://sodipodi.sourceforge.net/DTD/sodipodi-0.dtd"
   xmlns="http://www.w3.org/2000/svg"
   xmlns:svg="http://www.w3.org/2000/svg"><defs
   id="defs37" /><sodipodi:namedview
   id="namedview35"
   pagecolor="#505050"
   bordercolor="#eeeeee"
   borderopacity="1"
   inkscape:showpageshadow="0"
   inkscape:pageopacity="0"
   inkscape:pagecheckerboard="0"
   inkscape:deskcolor="#505050"
   showgrid="false"
   inkscape:zoom="2.6094276"
   inkscape:cx="130.10516"
   inkscape:cy="148.88323"
   inkscape:window-width="1920"
   inkscape:window-height="1011"
   inkscape:window-x="0"
   inkscape:window-y="0"
   inkscape:window-maximized="1"
   inkscape:current-layer="Capa_1" />
















<rect
   style="fill:#fffcff;fill-opacity:1;stroke-width:0.26633;-inkscape-stroke:none;stop-color:#000000"
   id="rect917"
   x="0"
   y="0"
   width="297"
   height="297" /><path
   d="M 234.23971,19.999998 H 187.3437 c -5.17894,0 -9.69418,3.524448 -10.95062,8.54936 L 162.68555,83.382082 H 62.760998 c -3.34879,0 -6.52451,1.48749 -8.66877,4.05922 -2.14513,2.57259 -3.03641,5.96292 -2.43415,9.25805 L 82.921218,267.74367 C 83.901628,273.1052 88.573488,277 94.025008,277 H 171.7117 c 5.45152,0 10.12338,-3.8948 11.10292,-9.25719 L 214.07863,96.698492 c 0.60226,-3.29514 -0.28902,-6.68546 -2.43415,-9.25806 -2.14426,-2.57173 -5.31999,-4.05921 -8.66877,-4.05921 h -17.02084 l 10.20125,-40.807625 h 38.08273 c 6.23376,0 11.28723,-5.053468 11.28723,-11.287232 0,-6.233764 -5.0526,-11.286367 -11.28637,-11.286367 z M 162.30048,254.42554 H 103.43536 L 87.724608,168.46985 H 178.01209 Z M 182.13794,145.89539 H 83.598768 l -7.29984,-39.93884 H 189.43864 Z"
   id="path2"
   style="fill:#2292a8;fill-opacity:1;stroke-width:0.86532" /><g
   id="g4"
   style="fill:#2292a8;fill-opacity:1"
   transform="matrix(0.86531987,0,0,0.86531987,177.15861,52.765806)">
</g><g
   id="g6"
   style="fill:#2292a8;fill-opacity:1"
   transform="matrix(0.86531987,0,0,0.86531987,177.15861,52.765806)">
</g><g
   id="g8"
   style="fill:#2292a8;fill-opacity:1"
   transform="matrix(0.86531987,0,0,0.86531987,177.15861,52.765806)">
</g><g
   id="g10"
   style="fill:#2292a8;fill-opacity:1"
   transform="matrix(0.86531987,0,0,0.86531987,177.15861,52.765806)">
</g><g
   id="g12"
   style="fill:#2292a8;fill-opacity:1"
   transform="matrix(0.86531987,0,0,0.86531987,177.15861,52.765806)">
</g><g
   id="g14"
   style="fill:#2292a8;fill-opacity:1"
   transform="matrix(0.86531987,0,0,0.86531987,177.15861,52.765806)">
</g><g
   id="g16"
   style="fill:#2292a8;fill-opacity:1"
   transform="matrix(0.86531987,0,0,0.86531987,177.15861,52.765806)">
</g><g
   id="g18"
   style="fill:#2292a8;fill-opacity:1"
   transform="matrix(0.86531987,0,0,0.86531987,177.15861,52.765806)">
</g><g
   id="g20"
   style="fill:#2292a8;fill-opacity:1"
   transform="matrix(0.86531987,0,0,0.86531987,177.15861,52.765806)">
</g><g
   id="g22"
   style="fill:#2292a8;fill-opacity:1"
   transform="matrix(0.86531987,0,0,0.86531987,177.15861,52.765806)">
</g><g
   id="g24"
   style="fill:#2292a8;fill-opacity:1"
   transform="matrix(0.86531987,0,0,0.86531987,177.15861,52.765806)">
</g><g
   id="g26"
   style="fill:#2292a8;fill-opacity:1"
   transform="matrix(0.86531987,0,0,0.86531987,177.15861,52.765806)">
</g><g
   id="g28"
   style="fill:#2292a8;fill-opacity:1"
   transform="matrix(0.86531987,0,0,0.86531987,177.15861,52.765806)">
</g><g
   id="g30"
   style="fill:#2292a8;fill-opacity:1"
   transform="matrix(0.86531987,0,0,0.86531987,177.15861,52.765806)">
</g><g
   id="g32"
   style="fill:#2292a8;fill-opacity:1"
   transform="matrix(0.86531987,0,0,0.86531987,177.15861,52.765806)">
</g></svg>
