<?xml version="1.0" encoding="UTF-8" standalone="no"?>
<!-- Generator: Adobe Illustrator 18.0.0, SVG Export Plug-In . SVG Version: 6.00 Build 0)  -->

<svg
   version="1.1"
   id="Capa_1"
   x="0px"
   y="0px"
   viewBox="0 0 512 512"
   xml:space="preserve"
   sodipodi:docname="blubb.today.svg"
   width="512"
   height="512"
   inkscape:version="1.2.1 (9c6d41e410, 2022-07-14, custom)"
   xmlns:inkscape="http://www.inkscape.org/namespaces/inkscape"
   xmlns:sodipodi="http://sodipodi.sourceforge.net/DTD/sodipodi-0.dtd"
   xmlns="http://www.w3.org/2000/svg"
   xmlns:svg="http://www.w3.org/2000/svg"><sodipodi:namedview
   id="namedview186"
   pagecolor="#505050"
   bordercolor="#eeeeee"
   borderopacity="1"
   inkscape:showpageshadow="0"
   inkscape:pageopacity="0"
   inkscape:pagecheckerboard="0"
   inkscape:deskcolor="#505050"
   showgrid="false"
   inkscape:zoom="0.97298797"
   inkscape:cx="187.56655"
   inkscape:cy="251.28779"
   inkscape:window-width="1920"
   inkscape:window-height="1011"
   inkscape:window-x="0"
   inkscape:window-y="0"
   inkscape:window-maximized="1"
   inkscape:current-layer="Capa_1" /><defs
   id="defs37" />
















<path
   d="M 426.81201,0 H 333.38527 C 323.06711,0 314.07239,7.021468 311.56921,17.032189 L 284.26059,126.27093 H 85.18914 c -6.671545,0 -12.998272,2.96341 -17.270104,8.08687 -4.273569,5.12516 -6.049194,11.87944 -4.849361,18.44402 L 125.35266,493.55916 C 127.30586,504.24105 136.6132,512 147.4738,512 h 154.76877 c 10.86047,0 20.16794,-7.75895 22.1193,-18.44233 L 386.6466,152.80013 c 1.20028,-6.56467 -0.57548,-13.31893 -4.84926,-18.4441 -4.2716,-5.12347 -10.59856,-8.08679 -17.27004,-8.08679 h -33.90929 l 20.32355,-81.297713 h 75.86897 c 12.4186,0 22.48668,-10.067589 22.48668,-22.486613 C 449.29721,10.065884 439.23132,0 426.81201,0 Z M 283.49334,467.02664 h -117.272 l -31.29929,-171.2426 h 179.8726 z M 323.01398,250.81137 H 126.70246 l -14.54287,-79.56721 h 225.39915 z"
   id="path2"
   style="fill:#2292a8;fill-opacity:1;stroke-width:1.72391" /><g
   id="g4"
   style="fill:#2292a8;fill-opacity:1"
   transform="matrix(1.7239057,0,0,1.7239057,187.6888,65.2766)">
</g><g
   id="g6"
   style="fill:#2292a8;fill-opacity:1"
   transform="matrix(1.7239057,0,0,1.7239057,187.6888,65.2766)">
</g><g
   id="g8"
   style="fill:#2292a8;fill-opacity:1"
   transform="matrix(1.7239057,0,0,1.7239057,187.6888,65.2766)">
</g><g
   id="g10"
   style="fill:#2292a8;fill-opacity:1"
   transform="matrix(1.7239057,0,0,1.7239057,187.6888,65.2766)">
</g><g
   id="g12"
   style="fill:#2292a8;fill-opacity:1"
   transform="matrix(1.7239057,0,0,1.7239057,187.6888,65.2766)">
</g><g
   id="g14"
   style="fill:#2292a8;fill-opacity:1"
   transform="matrix(1.7239057,0,0,1.7239057,187.6888,65.2766)">
</g><g
   id="g16"
   style="fill:#2292a8;fill-opacity:1"
   transform="matrix(1.7239057,0,0,1.7239057,187.6888,65.2766)">
</g><g
   id="g18"
   style="fill:#2292a8;fill-opacity:1"
   transform="matrix(1.7239057,0,0,1.7239057,187.6888,65.2766)">
</g><g
   id="g20"
   style="fill:#2292a8;fill-opacity:1"
   transform="matrix(1.7239057,0,0,1.7239057,187.6888,65.2766)">
</g><g
   id="g22"
   style="fill:#2292a8;fill-opacity:1"
   transform="matrix(1.7239057,0,0,1.7239057,187.6888,65.2766)">
</g><g
   id="g24"
   style="fill:#2292a8;fill-opacity:1"
   transform="matrix(1.7239057,0,0,1.7239057,187.6888,65.2766)">
</g><g
   id="g26"
   style="fill:#2292a8;fill-opacity:1"
   transform="matrix(1.7239057,0,0,1.7239057,187.6888,65.2766)">
</g><g
   id="g28"
   style="fill:#2292a8;fill-opacity:1"
   transform="matrix(1.7239057,0,0,1.7239057,187.6888,65.2766)">
</g><g
   id="g30"
   style="fill:#2292a8;fill-opacity:1"
   transform="matrix(1.7239057,0,0,1.7239057,187.6888,65.2766)">
</g><g
   id="g32"
   style="fill:#2292a8;fill-opacity:1"
   transform="matrix(1.7239057,0,0,1.7239057,187.6888,65.2766)">
</g></svg>
